<?xml version="1.0" standalone="no"?>
<!DOCTYPE svg PUBLIC "-//W3C//DTD SVG 20010904//EN"
 "http://www.w3.org/TR/2001/REC-SVG-20010904/DTD/svg10.dtd">
<svg version="1.0" xmlns="http://www.w3.org/2000/svg"
 width="316.000000pt" height="175.000000pt" viewBox="0 0 316.000000 175.000000"
 preserveAspectRatio="xMidYMid meet">

<g transform="translate(0.000000,175.000000) scale(0.100000,-0.100000)"
fill="#000000" stroke="none">
<path d="M1145 1160 c-8 -35 -82 -120 -131 -151 l-35 -21 -30 28 -29 28 -43
-42 c-23 -22 -67 -52 -97 -65 l-55 -24 75 -14 c103 -19 289 -17 370 4 85 22
198 78 233 115 l29 30 -64 35 c-149 82 -198 107 -207 107 -5 0 -12 -13 -16
-30z"/>
</g>
</svg>
